<svg width="24" height="24" viewBox="0 0 24 24" fill="none" xmlns="http://www.w3.org/2000/svg">
<path fill-rule="evenodd" clip-rule="evenodd" d="M4.51475 4.51475C8.41999 0.609504 14.7516 0.609503 18.6569 4.51475C22.5621 8.41999 22.5621 14.7516 18.6569 18.6569C14.7516 22.5621 8.41999 22.5621 4.51475 18.6569C0.609504 14.7516 0.609504 8.41999 4.51475 4.51475ZM3.80764 3.80764C8.10341 -0.488127 15.0682 -0.488127 19.364 3.80764C23.5413 7.98491 23.6565 14.686 19.7097 19.0025L23.1824 22.4752C23.4167 22.7096 23.4484 23.0578 23.2531 23.2531C23.0578 23.4483 22.7096 23.4167 22.4753 23.1824L19.0026 19.7096C14.6861 23.6565 7.98493 23.5413 3.80764 19.364C-0.488126 15.0682 -0.488127 8.10341 3.80764 3.80764Z" fill="#E1E1E1"/>
</svg>
